<svg id="Layer_1" data-name="Layer 1" xmlns="http://www.w3.org/2000/svg" viewBox="0 0 115 26"><defs><style>.cls-1{fill:#ff5574;}.cls-2{fill:#ffc043;}.cls-3{fill:#6168ff;}.cls-4{fill:#222;}</style></defs><title>logo</title><path class="cls-1" d="M18.675,10.111V26H1.437A1.44,1.44,0,0,1,0,24.556V10.111H18.675Z" transform="translate(0)"/><path class="cls-2" d="M28.73,10.111V24.556A1.44,1.44,0,0,1,27.294,26H21.548V10.111H28.73Z" transform="translate(0)"/><path class="cls-3" d="M27.294,0A1.44,1.44,0,0,1,28.73,1.444V7.222H0V1.444A1.44,1.44,0,0,1,1.437,0H27.294Z" transform="translate(0)"/><path class="cls-4" d="M44.974,21.879L54.154,9.867c0.88-1.1,1.718-2.065,2.641-3.161V6.621H45.813V3.629H61.279L61.237,5.947,52.184,17.791c-0.838,1.138-1.676,2.149-2.6,3.2v0.084H61.447v2.951H44.974V21.879Z" transform="translate(0)"/><rect class="cls-4" x="66.301" y="3.629" width="3.688" height="20.399"/><path class="cls-4" d="M76.649,9.15c0-2.107-.042-3.835-0.168-5.521H79.75L79.96,7h0.084A7.455,7.455,0,0,1,86.75,3.165c2.808,0,7.168,1.686,7.168,8.682V24.028H90.23V12.269c0-3.287-1.217-6.027-4.7-6.027a5.245,5.245,0,0,0-4.946,3.794,5.353,5.353,0,0,0-.252,1.728V24.028H76.649V9.15Z" transform="translate(0)"/><path class="cls-4" d="M114.916,23.27a13.536,13.536,0,0,1-5.827,1.18c-6.119,0-10.1-4.173-10.1-10.411,0-6.28,4.276-10.832,10.9-10.832A12.275,12.275,0,0,1,115,4.261l-0.839,2.866a8.513,8.513,0,0,0-4.274-.97c-4.653,0-7.168,3.456-7.168,7.713,0,4.72,3.018,7.629,7.042,7.629a10.441,10.441,0,0,0,4.526-1.011Z" transform="translate(0)"/></svg>